<svg width="2560" height="1024" viewBox="0 0 2560 1024" fill="none" xmlns="http://www.w3.org/2000/svg">
<path d="M723.124 396V495.815H561.881V925.876L512.124 954.688L462.367 925.876V495.815H301.124V396H723.124Z" fill="#0088FF" stroke="url(#paint0_linear_2781_2)" stroke-width="4"/>
<path d="M900.124 736.378L899.124 736.955L669.023 869.732L666.023 871.463V746.896L667.024 746.319L792.19 674.093V350.868L512.124 189.257L232.058 350.868V674.093L357.224 746.319L358.225 746.896V871.463L355.225 869.732L125.124 736.955L124.124 736.378V288.586L125.124 288.009L511.124 65.2676L512.124 64.6904L513.124 65.2676L899.124 288.009L900.124 288.586V736.378Z" fill="#0088FF" stroke="url(#paint1_linear_2781_2)" stroke-width="4"/>
<path d="M1117.99 551V454.145H1069.48V432.2H1188.28V454.145H1139.93V551H1117.99ZM1288.07 551V506.45L1233.29 432.2H1259.03L1299.12 482.525L1338.72 432.2H1364.96L1310.01 506.615V551H1288.07ZM1416.05 551V432.365H1511.75C1515.93 432.365 1519.78 433.41 1523.3 435.5C1526.82 437.59 1529.63 440.395 1531.72 443.915C1533.81 447.325 1534.85 451.12 1534.85 455.3V487.31C1534.85 491.49 1533.81 495.34 1531.72 498.86C1529.63 502.38 1526.82 505.185 1523.3 507.275C1519.78 509.255 1515.93 510.245 1511.75 510.245L1437.83 510.41V551H1416.05ZM1439.81 488.3H1510.76C1511.31 488.3 1511.81 488.135 1512.25 487.805C1512.69 487.475 1512.91 487.035 1512.91 486.485V456.125C1512.91 455.575 1512.69 455.135 1512.25 454.805C1511.81 454.365 1511.31 454.145 1510.76 454.145H1439.81C1439.26 454.145 1438.77 454.365 1438.33 454.805C1438 455.135 1437.83 455.575 1437.83 456.125V486.485C1437.83 487.035 1438 487.475 1438.33 487.805C1438.77 488.135 1439.26 488.3 1439.81 488.3ZM1588.15 551V432.2H1697.54V454.145H1610.09V480.545H1680.38V502.655H1610.09V529.055H1697.54V551H1588.15ZM1755.73 551V432.2H1851.43C1855.61 432.2 1859.46 433.245 1862.98 435.335C1866.5 437.425 1869.3 440.23 1871.39 443.75C1873.48 447.16 1874.53 450.955 1874.53 455.135V528.065C1874.53 532.245 1873.48 536.095 1871.39 539.615C1869.3 543.025 1866.5 545.775 1862.98 547.865C1859.46 549.955 1855.61 551 1851.43 551H1755.73ZM1779.32 529.055H1850.44C1850.99 529.055 1851.48 528.89 1851.92 528.56C1852.36 528.12 1852.58 527.625 1852.58 527.075V456.125C1852.58 455.575 1852.36 455.135 1851.92 454.805C1851.48 454.365 1850.99 454.145 1850.44 454.145H1779.32C1778.77 454.145 1778.28 454.365 1777.84 454.805C1777.51 455.135 1777.34 455.575 1777.34 456.125V527.075C1777.34 527.625 1777.51 528.12 1777.84 528.56C1778.28 528.89 1778.77 529.055 1779.32 529.055Z" fill="white"/>
<path d="M2048.87 551C2044.69 551 2040.84 549.955 2037.32 547.865C2033.91 545.775 2031.16 543.025 2029.07 539.615C2026.98 536.095 2025.94 532.245 2025.94 528.065V455.135C2025.94 450.955 2026.98 447.16 2029.07 443.75C2031.16 440.23 2033.91 437.425 2037.32 435.335C2040.84 433.245 2044.69 432.2 2048.87 432.2H2121.64C2125.82 432.2 2129.67 433.245 2133.19 435.335C2136.71 437.425 2139.51 440.23 2141.6 443.75C2143.69 447.16 2144.74 450.955 2144.74 455.135V464.375H2122.79V456.125C2122.79 455.575 2122.57 455.135 2122.13 454.805C2121.69 454.365 2121.2 454.145 2120.65 454.145H2049.7C2049.15 454.145 2048.65 454.365 2048.21 454.805C2047.88 455.135 2047.72 455.575 2047.72 456.125V527.075C2047.72 527.625 2047.88 528.12 2048.21 528.56C2048.65 528.89 2049.15 529.055 2049.7 529.055H2120.65C2121.2 529.055 2121.69 528.89 2122.13 528.56C2122.57 528.12 2122.79 527.625 2122.79 527.075V505.625H2095.9V483.68H2144.74V528.065C2144.74 532.245 2143.69 536.095 2141.6 539.615C2139.51 543.025 2136.71 545.775 2133.19 547.865C2129.67 549.955 2125.82 551 2121.64 551H2048.87ZM2204.15 551V432.2H2228.08L2271.14 483.515L2314.04 432.2H2338.13V551H2316.19V463.88L2271.14 517.505L2225.93 464.045V551H2204.15ZM2398.64 551V432.035H2420.42V529.055H2517.44V551H2398.64Z" fill="#0088FF"/>
<path d="M1129.67 631C1128.68 631 1127.77 630.76 1126.95 630.28C1126.15 629.8 1125.51 629.147 1125.03 628.32C1124.55 627.493 1124.31 626.587 1124.31 625.6V623.68H1129.11V625.44C1129.11 625.653 1129.17 625.827 1129.31 625.96C1129.44 626.093 1129.61 626.16 1129.83 626.16H1147.51C1147.72 626.16 1147.89 626.093 1148.03 625.96C1148.19 625.827 1148.27 625.653 1148.27 625.44V619.72C1148.27 619.533 1148.19 619.373 1148.03 619.24C1147.89 619.08 1147.72 619 1147.51 619H1129.67C1128.68 619 1127.77 618.76 1126.95 618.28C1126.15 617.8 1125.51 617.16 1125.03 616.36C1124.55 615.533 1124.31 614.627 1124.31 613.64V607.6C1124.31 606.613 1124.55 605.707 1125.03 604.88C1125.51 604.053 1126.15 603.4 1126.95 602.92C1127.77 602.44 1128.68 602.2 1129.67 602.2H1147.71C1148.69 602.2 1149.59 602.44 1150.39 602.92C1151.21 603.4 1151.87 604.053 1152.35 604.88C1152.85 605.707 1153.11 606.613 1153.11 607.6V609.52H1148.27V607.76C1148.27 607.547 1148.19 607.373 1148.03 607.24C1147.89 607.107 1147.72 607.04 1147.51 607.04H1129.83C1129.61 607.04 1129.44 607.107 1129.31 607.24C1129.17 607.373 1129.11 607.547 1129.11 607.76V613.48C1129.11 613.667 1129.17 613.84 1129.31 614C1129.44 614.133 1129.61 614.2 1129.83 614.2H1147.71C1148.69 614.2 1149.59 614.44 1150.39 614.92C1151.21 615.4 1151.87 616.053 1152.35 616.88C1152.85 617.68 1153.11 618.573 1153.11 619.56V625.6C1153.11 626.587 1152.85 627.493 1152.35 628.32C1151.87 629.147 1151.21 629.8 1150.39 630.28C1149.59 630.76 1148.69 631 1147.71 631H1129.67ZM1178.4 631V607.04H1166.4V602.2H1195.2V607.04H1183.2V631H1178.4ZM1231.87 631L1223.03 620.44H1229.31L1237.27 629.88V631H1231.87ZM1208.59 631V602.24H1231.99C1232.97 602.24 1233.87 602.493 1234.67 603C1235.49 603.48 1236.15 604.133 1236.63 604.96C1237.13 605.76 1237.39 606.653 1237.39 607.64V615.56C1237.39 616.52 1237.13 617.413 1236.63 618.24C1236.15 619.067 1235.49 619.72 1234.67 620.2C1233.87 620.68 1232.97 620.92 1231.99 620.92L1213.39 620.96V631H1208.59ZM1214.11 616.08H1231.83C1232.01 616.08 1232.17 616.013 1232.31 615.88C1232.47 615.747 1232.55 615.573 1232.55 615.36V607.76C1232.55 607.573 1232.47 607.413 1232.31 607.28C1232.17 607.12 1232.01 607.04 1231.83 607.04H1214.11C1213.92 607.04 1213.75 607.12 1213.59 607.28C1213.45 607.413 1213.39 607.573 1213.39 607.76V615.36C1213.39 615.573 1213.45 615.747 1213.59 615.88C1213.75 616.013 1213.92 616.08 1214.11 616.08ZM1257.31 631C1256.33 631 1255.42 630.76 1254.59 630.28C1253.77 629.8 1253.11 629.147 1252.63 628.32C1252.15 627.493 1251.91 626.587 1251.91 625.6V607.6C1251.91 606.613 1252.15 605.707 1252.63 604.88C1253.11 604.053 1253.77 603.4 1254.59 602.92C1255.42 602.44 1256.33 602.2 1257.31 602.2H1275.31C1276.3 602.2 1277.19 602.44 1277.99 602.92C1278.82 603.4 1279.47 604.053 1279.95 604.88C1280.46 605.707 1280.71 606.613 1280.71 607.6V625.6C1280.71 626.587 1280.46 627.493 1279.95 628.32C1279.47 629.147 1278.82 629.8 1277.99 630.28C1277.19 630.76 1276.3 631 1275.31 631H1257.31ZM1257.43 626.16H1275.15C1275.34 626.16 1275.5 626.093 1275.63 625.96C1275.79 625.827 1275.87 625.653 1275.87 625.44V607.76C1275.87 607.547 1275.79 607.373 1275.63 607.24C1275.5 607.107 1275.34 607.04 1275.15 607.04H1257.43C1257.25 607.04 1257.07 607.107 1256.91 607.24C1256.78 607.373 1256.71 607.547 1256.71 607.76V625.44C1256.71 625.653 1256.78 625.827 1256.91 625.96C1257.07 626.093 1257.25 626.16 1257.43 626.16ZM1295.52 631V602.2H1301L1319.48 624.2V602.2H1324.32V631H1318.84L1300.32 608.96V631H1295.52ZM1344.6 631C1343.61 631 1342.71 630.76 1341.88 630.28C1341.05 629.8 1340.4 629.147 1339.92 628.32C1339.44 627.493 1339.2 626.587 1339.2 625.6V607.6C1339.2 606.613 1339.44 605.707 1339.92 604.88C1340.4 604.053 1341.05 603.4 1341.88 602.92C1342.71 602.44 1343.61 602.2 1344.6 602.2H1362.6C1363.59 602.2 1364.48 602.44 1365.28 602.92C1366.11 603.4 1366.76 604.053 1367.24 604.88C1367.75 605.707 1368 606.613 1368 607.6V609.56H1363.16V607.76C1363.16 607.547 1363.08 607.373 1362.92 607.24C1362.79 607.107 1362.63 607.04 1362.44 607.04H1344.72C1344.53 607.04 1344.36 607.107 1344.2 607.24C1344.07 607.373 1344 607.547 1344 607.76V625.44C1344 625.653 1344.07 625.827 1344.2 625.96C1344.36 626.093 1344.53 626.16 1344.72 626.16H1362.44C1362.63 626.16 1362.79 626.093 1362.92 625.96C1363.08 625.827 1363.16 625.653 1363.16 625.44V619.8H1356.52V614.96H1368V625.6C1368 626.587 1367.75 627.493 1367.24 628.32C1366.76 629.147 1366.11 629.8 1365.28 630.28C1364.48 630.76 1363.59 631 1362.6 631H1344.6ZM1415.68 631V607.04H1403.68V602.2H1432.48V607.04H1420.48V631H1415.68ZM1457.31 631V620.2L1444.03 602.2H1449.71L1459.75 614.84L1469.71 602.2H1475.47L1462.15 620.24V631H1457.31ZM1488.5 631V602.24H1511.9C1512.88 602.24 1513.78 602.493 1514.58 603C1515.4 603.48 1516.06 604.133 1516.54 604.96C1517.04 605.76 1517.3 606.653 1517.3 607.64V615.56C1517.3 616.52 1517.04 617.413 1516.54 618.24C1516.06 619.067 1515.4 619.72 1514.58 620.2C1513.78 620.68 1512.88 620.92 1511.9 620.92L1493.3 620.96V631H1488.5ZM1494.02 616.08H1511.74C1511.92 616.08 1512.08 616.013 1512.22 615.88C1512.38 615.747 1512.46 615.573 1512.46 615.36V607.76C1512.46 607.573 1512.38 607.413 1512.22 607.28C1512.08 607.12 1511.92 607.04 1511.74 607.04H1494.02C1493.83 607.04 1493.66 607.12 1493.5 607.28C1493.36 607.413 1493.3 607.573 1493.3 607.76V615.36C1493.3 615.573 1493.36 615.747 1493.5 615.88C1493.66 616.013 1493.83 616.08 1494.02 616.08ZM1530.62 631V602.2H1557.06V607.04H1535.46V614.2H1552.86V619H1535.46V626.16H1557.06V631H1530.62ZM1576.8 631C1575.82 631 1574.91 630.76 1574.08 630.28C1573.28 629.8 1572.64 629.147 1572.16 628.32C1571.68 627.493 1571.44 626.587 1571.44 625.6V623.68H1576.24V625.44C1576.24 625.653 1576.31 625.827 1576.44 625.96C1576.58 626.093 1576.75 626.16 1576.96 626.16H1594.64C1594.86 626.16 1595.03 626.093 1595.16 625.96C1595.32 625.827 1595.4 625.653 1595.4 625.44V619.72C1595.4 619.533 1595.32 619.373 1595.16 619.24C1595.03 619.08 1594.86 619 1594.64 619H1576.8C1575.82 619 1574.91 618.76 1574.08 618.28C1573.28 617.8 1572.64 617.16 1572.16 616.36C1571.68 615.533 1571.44 614.627 1571.44 613.64V607.6C1571.44 606.613 1571.68 605.707 1572.16 604.88C1572.64 604.053 1573.28 603.4 1574.08 602.92C1574.91 602.44 1575.82 602.2 1576.8 602.2H1594.84C1595.83 602.2 1596.72 602.44 1597.52 602.92C1598.35 603.4 1599 604.053 1599.48 604.88C1599.99 605.707 1600.24 606.613 1600.24 607.6V609.52H1595.4V607.76C1595.4 607.547 1595.32 607.373 1595.16 607.24C1595.03 607.107 1594.86 607.04 1594.64 607.04H1576.96C1576.75 607.04 1576.58 607.107 1576.44 607.24C1576.31 607.373 1576.24 607.547 1576.24 607.76V613.48C1576.24 613.667 1576.31 613.84 1576.44 614C1576.58 614.133 1576.75 614.2 1576.96 614.2H1594.84C1595.83 614.2 1596.72 614.44 1597.52 614.92C1598.35 615.4 1599 616.053 1599.48 616.88C1599.99 617.68 1600.24 618.573 1600.24 619.56V625.6C1600.24 626.587 1599.99 627.493 1599.48 628.32C1599 629.147 1598.35 629.8 1597.52 630.28C1596.72 630.76 1595.83 631 1594.84 631H1576.8ZM1683.95 631C1682.97 631 1682.06 630.76 1681.23 630.28C1680.41 629.8 1679.75 629.147 1679.27 628.32C1678.79 627.493 1678.55 626.587 1678.55 625.6V607.6C1678.55 606.613 1678.79 605.707 1679.27 604.88C1679.75 604.053 1680.41 603.4 1681.23 602.92C1682.06 602.44 1682.97 602.2 1683.95 602.2H1707.27V607.04H1684.79C1684.37 607.04 1684.02 607.173 1683.75 607.44C1683.49 607.68 1683.35 608.013 1683.35 608.44V624.76C1683.35 625.187 1683.49 625.533 1683.75 625.8C1684.02 626.04 1684.37 626.16 1684.79 626.16H1707.27V631H1683.95ZM1721.88 631V602.16H1726.68V626.16H1750.68V631H1721.88ZM1763.49 631V602.2H1789.93V607.04H1768.33V614.2H1785.73V619H1768.33V626.16H1789.93V631H1763.49ZM1804.52 631V607.6C1804.52 606.613 1804.76 605.707 1805.24 604.88C1805.72 604.053 1806.37 603.4 1807.2 602.92C1808.03 602.44 1808.93 602.2 1809.92 602.2H1827.92C1828.91 602.2 1829.8 602.44 1830.6 602.92C1831.43 603.4 1832.08 604.053 1832.56 604.88C1833.07 605.707 1833.32 606.613 1833.32 607.6V631H1828.48V621.12H1809.32V631H1804.52ZM1809.32 616.32H1828.48V607.76C1828.48 607.547 1828.4 607.373 1828.24 607.24C1828.11 607.107 1827.95 607.04 1827.76 607.04H1810.04C1809.85 607.04 1809.68 607.107 1809.52 607.24C1809.39 607.373 1809.32 607.547 1809.32 607.76V616.32ZM1848.28 631V602.2H1853.76L1872.24 624.2V602.2H1877.08V631H1871.6L1853.08 608.96V631H1848.28ZM1919.67 631C1918.69 631 1917.78 630.76 1916.95 630.28C1916.13 629.8 1915.47 629.147 1914.99 628.32C1914.51 627.493 1914.27 626.587 1914.27 625.6V607.6C1914.27 606.613 1914.51 605.707 1914.99 604.88C1915.47 604.053 1916.13 603.4 1916.95 602.92C1917.78 602.44 1918.69 602.2 1919.67 602.2H1942.99V607.04H1920.51C1920.09 607.04 1919.74 607.173 1919.47 607.44C1919.21 607.68 1919.07 608.013 1919.07 608.44V624.76C1919.07 625.187 1919.21 625.533 1919.47 625.8C1919.74 626.04 1920.09 626.16 1920.51 626.16H1942.99V631H1919.67ZM1962.88 631C1961.9 631 1960.99 630.76 1960.16 630.28C1959.34 629.8 1958.68 629.147 1958.2 628.32C1957.72 627.493 1957.48 626.587 1957.48 625.6V607.6C1957.48 606.613 1957.72 605.707 1958.2 604.88C1958.68 604.053 1959.34 603.4 1960.16 602.92C1960.99 602.44 1961.9 602.2 1962.88 602.2H1980.88C1981.87 602.2 1982.76 602.44 1983.56 602.92C1984.39 603.4 1985.04 604.053 1985.52 604.88C1986.03 605.707 1986.28 606.613 1986.28 607.6V625.6C1986.28 626.587 1986.03 627.493 1985.52 628.32C1985.04 629.147 1984.39 629.8 1983.56 630.28C1982.76 630.76 1981.87 631 1980.88 631H1962.88ZM1963 626.16H1980.72C1980.91 626.16 1981.07 626.093 1981.2 625.96C1981.36 625.827 1981.44 625.653 1981.44 625.44V607.76C1981.44 607.547 1981.36 607.373 1981.2 607.24C1981.07 607.107 1980.91 607.04 1980.72 607.04H1963C1962.82 607.04 1962.64 607.107 1962.48 607.24C1962.35 607.373 1962.28 607.547 1962.28 607.76V625.44C1962.28 625.653 1962.35 625.827 1962.48 625.96C1962.64 626.093 1962.82 626.16 1963 626.16ZM2001.17 631V602.2H2024.57C2025.56 602.2 2026.45 602.44 2027.25 602.92C2028.08 603.4 2028.73 604.053 2029.21 604.88C2029.72 605.707 2029.97 606.613 2029.97 607.6V625.6C2029.97 626.587 2029.72 627.493 2029.21 628.32C2028.73 629.147 2028.08 629.8 2027.25 630.28C2026.45 630.76 2025.56 631 2024.57 631H2001.17ZM2006.69 626.16H2024.41C2024.6 626.16 2024.76 626.093 2024.89 625.96C2025.05 625.827 2025.13 625.653 2025.13 625.44V607.76C2025.13 607.547 2025.05 607.373 2024.89 607.24C2024.76 607.107 2024.6 607.04 2024.41 607.04H2006.69C2006.48 607.04 2006.29 607.107 2006.13 607.24C2006 607.373 2005.93 607.547 2005.93 607.76V625.44C2005.93 625.653 2006 625.827 2006.13 625.96C2006.29 626.093 2006.48 626.16 2006.69 626.16ZM2044.93 631V602.2H2071.37V607.04H2049.77V614.2H2067.17V619H2049.77V626.16H2071.37V631H2044.93ZM2149.46 631V602.24H2172.86C2173.84 602.24 2174.74 602.493 2175.54 603C2176.36 603.48 2177.02 604.133 2177.5 604.96C2178 605.76 2178.26 606.653 2178.26 607.64V615.56C2178.26 616.52 2178 617.413 2177.5 618.24C2177.02 619.067 2176.36 619.72 2175.54 620.2C2174.74 620.68 2173.84 620.92 2172.86 620.92L2154.26 620.96V631H2149.46ZM2154.98 616.08H2172.7C2172.88 616.08 2173.04 616.013 2173.18 615.88C2173.34 615.747 2173.42 615.573 2173.42 615.36V607.76C2173.42 607.573 2173.34 607.413 2173.18 607.28C2173.04 607.12 2172.88 607.04 2172.7 607.04H2154.98C2154.79 607.04 2154.62 607.12 2154.46 607.28C2154.32 607.413 2154.26 607.573 2154.26 607.76V615.36C2154.26 615.573 2154.32 615.747 2154.46 615.88C2154.62 616.013 2154.79 616.08 2154.98 616.08ZM2196.82 631C2195.83 631 2194.92 630.76 2194.1 630.28C2193.27 629.8 2192.62 629.147 2192.14 628.32C2191.66 627.493 2191.42 626.587 2191.42 625.6V602.2H2196.22V625.44C2196.22 625.653 2196.28 625.827 2196.42 625.96C2196.58 626.093 2196.75 626.16 2196.94 626.16H2214.66C2214.84 626.16 2215 626.093 2215.14 625.96C2215.3 625.827 2215.38 625.653 2215.38 625.44V602.2H2220.22V625.6C2220.22 626.587 2219.96 627.493 2219.46 628.32C2218.98 629.147 2218.32 629.8 2217.5 630.28C2216.7 630.76 2215.8 631 2214.82 631H2196.82ZM2258.3 631L2249.46 620.44H2255.74L2263.7 629.88V631H2258.3ZM2235.02 631V602.24H2258.42C2259.41 602.24 2260.3 602.493 2261.1 603C2261.93 603.48 2262.58 604.133 2263.06 604.96C2263.57 605.76 2263.82 606.653 2263.82 607.64V615.56C2263.82 616.52 2263.57 617.413 2263.06 618.24C2262.58 619.067 2261.93 619.72 2261.1 620.2C2260.3 620.68 2259.41 620.92 2258.42 620.92L2239.82 620.96V631H2235.02ZM2240.54 616.08H2258.26C2258.45 616.08 2258.61 616.013 2258.74 615.88C2258.9 615.747 2258.98 615.573 2258.98 615.36V607.76C2258.98 607.573 2258.9 607.413 2258.74 607.28C2258.61 607.12 2258.45 607.04 2258.26 607.04H2240.54C2240.35 607.04 2240.18 607.12 2240.02 607.28C2239.89 607.413 2239.82 607.573 2239.82 607.76V615.36C2239.82 615.573 2239.89 615.747 2240.02 615.88C2240.18 616.013 2240.35 616.08 2240.54 616.08ZM2278.51 631V602.2H2304.95V607.04H2283.35V614.2H2300.75V619H2283.35V626.16H2304.95V631H2278.51ZM2347.17 631C2346.18 631 2345.27 630.76 2344.45 630.28C2343.62 629.8 2342.97 629.147 2342.49 628.32C2342.01 627.493 2341.77 626.587 2341.77 625.6V607.6C2341.77 606.613 2342.01 605.707 2342.49 604.88C2342.97 604.053 2343.62 603.4 2344.45 602.92C2345.27 602.44 2346.18 602.2 2347.17 602.2H2365.17C2366.15 602.2 2367.05 602.44 2367.85 602.92C2368.67 603.4 2369.33 604.053 2369.81 604.88C2370.31 605.707 2370.57 606.613 2370.57 607.6V609.56H2365.73V607.76C2365.73 607.547 2365.65 607.373 2365.49 607.24C2365.35 607.107 2365.19 607.04 2365.01 607.04H2347.29C2347.1 607.04 2346.93 607.107 2346.77 607.24C2346.63 607.373 2346.57 607.547 2346.57 607.76V625.44C2346.57 625.653 2346.63 625.827 2346.77 625.96C2346.93 626.093 2347.1 626.16 2347.29 626.16H2365.01C2365.19 626.16 2365.35 626.093 2365.49 625.96C2365.65 625.827 2365.73 625.653 2365.73 625.44V619.8H2359.09V614.96H2370.57V625.6C2370.57 626.587 2370.31 627.493 2369.81 628.32C2369.33 629.147 2368.67 629.8 2367.85 630.28C2367.05 630.76 2366.15 631 2365.17 631H2347.17ZM2385.37 631V602.2H2390.85L2401.65 615.08L2412.41 602.2H2417.93V631H2413.09V608.92L2401.65 622.56L2390.17 608.96V631H2385.37ZM2432.92 631V602.16H2437.72V626.16H2461.72V631H2432.92Z" fill="white" fill-opacity="0.6"/>
<path d="M1637.2 635.28V598.12H1641.96V635.28H1637.2ZM2108.11 635.28V598.12H2112.87V635.28H2108.11Z" fill="#0088FF" fill-opacity="0.6"/>
<defs>
<linearGradient id="paint0_linear_2781_2" x1="298.353" y1="128.472" x2="756.621" y2="919.909" gradientUnits="userSpaceOnUse">
<stop stop-color="#99CFFF"/>
<stop offset="1" stop-color="#006DCC"/>
</linearGradient>
<linearGradient id="paint1_linear_2781_2" x1="366.33" y1="18.7128" x2="587.297" y2="504.794" gradientUnits="userSpaceOnUse">
<stop stop-color="#99CFFF"/>
<stop offset="1" stop-color="#006DCC"/>
</linearGradient>
</defs>
</svg>
