<svg width="2560" height="1024" viewBox="0 0 2560 1024" fill="none" xmlns="http://www.w3.org/2000/svg">
<path d="M723.124 396V495.815H561.881V925.876L512.124 954.688L462.367 925.876V495.815H301.124V396H723.124Z" fill="#0088FF" stroke="url(#paint0_linear_2781_2)" stroke-width="4"/>
<path d="M900.124 736.378L899.124 736.955L669.023 869.732L666.023 871.463V746.896L667.024 746.319L792.19 674.093V350.868L512.124 189.257L232.058 350.868V674.093L357.224 746.319L358.225 746.896V871.463L355.225 869.732L125.124 736.955L124.124 736.378V288.586L125.124 288.009L511.124 65.2676L512.124 64.6904L513.124 65.2676L899.124 288.009L900.124 288.586V736.378Z" fill="#0088FF" stroke="url(#paint1_linear_2781_2)" stroke-width="4"/>
<path d="M1117.99 552V455.145H1069.48V433.2H1188.28V455.145H1139.93V552H1117.99ZM1288.07 552V507.45L1233.29 433.2H1259.03L1299.12 483.525L1338.72 433.2H1364.96L1310.01 507.615V552H1288.07ZM1416.05 552V433.365H1511.75C1515.93 433.365 1519.78 434.41 1523.3 436.5C1526.82 438.59 1529.63 441.395 1531.72 444.915C1533.81 448.325 1534.85 452.12 1534.85 456.3V488.31C1534.85 492.49 1533.81 496.34 1531.72 499.86C1529.63 503.38 1526.82 506.185 1523.3 508.275C1519.78 510.255 1515.93 511.245 1511.75 511.245L1437.83 511.41V552H1416.05ZM1439.81 489.3H1510.76C1511.31 489.3 1511.81 489.135 1512.25 488.805C1512.69 488.475 1512.91 488.035 1512.91 487.485V457.125C1512.91 456.575 1512.69 456.135 1512.25 455.805C1511.81 455.365 1511.31 455.145 1510.76 455.145H1439.81C1439.26 455.145 1438.77 455.365 1438.33 455.805C1438 456.135 1437.83 456.575 1437.83 457.125V487.485C1437.83 488.035 1438 488.475 1438.33 488.805C1438.77 489.135 1439.26 489.3 1439.81 489.3ZM1588.15 552V433.2H1697.54V455.145H1610.09V481.545H1680.38V503.655H1610.09V530.055H1697.54V552H1588.15ZM1755.73 552V433.2H1851.43C1855.61 433.2 1859.46 434.245 1862.98 436.335C1866.5 438.425 1869.3 441.23 1871.39 444.75C1873.48 448.16 1874.53 451.955 1874.53 456.135V529.065C1874.53 533.245 1873.48 537.095 1871.39 540.615C1869.3 544.025 1866.5 546.775 1862.98 548.865C1859.46 550.955 1855.61 552 1851.43 552H1755.73ZM1779.32 530.055H1850.44C1850.99 530.055 1851.48 529.89 1851.92 529.56C1852.36 529.12 1852.58 528.625 1852.58 528.075V457.125C1852.58 456.575 1852.36 456.135 1851.92 455.805C1851.48 455.365 1850.99 455.145 1850.44 455.145H1779.32C1778.77 455.145 1778.28 455.365 1777.84 455.805C1777.51 456.135 1777.34 456.575 1777.34 457.125V528.075C1777.34 528.625 1777.51 529.12 1777.84 529.56C1778.28 529.89 1778.77 530.055 1779.32 530.055Z" fill="white"/>
<path d="M2048.87 552C2044.69 552 2040.84 550.955 2037.32 548.865C2033.91 546.775 2031.16 544.025 2029.07 540.615C2026.98 537.095 2025.94 533.245 2025.94 529.065V456.135C2025.94 451.955 2026.98 448.16 2029.07 444.75C2031.16 441.23 2033.91 438.425 2037.32 436.335C2040.84 434.245 2044.69 433.2 2048.87 433.2H2121.64C2125.82 433.2 2129.67 434.245 2133.19 436.335C2136.71 438.425 2139.51 441.23 2141.6 444.75C2143.69 448.16 2144.74 451.955 2144.74 456.135V465.375H2122.79V457.125C2122.79 456.575 2122.57 456.135 2122.13 455.805C2121.69 455.365 2121.2 455.145 2120.65 455.145H2049.7C2049.15 455.145 2048.65 455.365 2048.21 455.805C2047.88 456.135 2047.72 456.575 2047.72 457.125V528.075C2047.72 528.625 2047.88 529.12 2048.21 529.56C2048.65 529.89 2049.15 530.055 2049.7 530.055H2120.65C2121.2 530.055 2121.69 529.89 2122.13 529.56C2122.57 529.12 2122.79 528.625 2122.79 528.075V506.625H2095.9V484.68H2144.74V529.065C2144.74 533.245 2143.69 537.095 2141.6 540.615C2139.51 544.025 2136.71 546.775 2133.19 548.865C2129.67 550.955 2125.82 552 2121.64 552H2048.87ZM2204.15 552V433.2H2228.08L2271.14 484.515L2314.04 433.2H2338.13V552H2316.19V464.88L2271.14 518.505L2225.93 465.045V552H2204.15ZM2398.64 552V433.035H2420.42V530.055H2517.44V552H2398.64Z" fill="#0088FF"/>
<path d="M1163.17 631C1162.28 631 1161.46 630.785 1160.7 630.354C1159.94 629.898 1159.33 629.303 1158.88 628.568C1158.45 627.808 1158.23 626.972 1158.23 626.06V624.464H1162.33V625.946C1162.33 626.199 1162.42 626.427 1162.6 626.63C1162.8 626.807 1163.03 626.896 1163.28 626.896H1180.54C1180.79 626.896 1181 626.807 1181.18 626.63C1181.36 626.427 1181.45 626.199 1181.45 625.946V620.322C1181.45 620.043 1181.36 619.815 1181.18 619.638C1181 619.461 1180.79 619.372 1180.54 619.372H1163.17C1162.28 619.372 1161.46 619.157 1160.7 618.726C1159.94 618.27 1159.33 617.675 1158.88 616.94C1158.45 616.18 1158.23 615.344 1158.23 614.432V608.58C1158.23 607.668 1158.45 606.845 1158.88 606.11C1159.33 605.35 1159.94 604.755 1160.7 604.324C1161.46 603.868 1162.28 603.64 1163.17 603.64H1180.65C1181.54 603.64 1182.36 603.868 1183.12 604.324C1183.88 604.755 1184.48 605.35 1184.91 606.11C1185.36 606.845 1185.59 607.668 1185.59 608.58V610.176H1181.45V608.694C1181.45 608.441 1181.36 608.225 1181.18 608.048C1181 607.845 1180.79 607.744 1180.54 607.744H1163.28C1163.03 607.744 1162.8 607.845 1162.6 608.048C1162.42 608.225 1162.33 608.441 1162.33 608.694V614.318C1162.33 614.597 1162.42 614.825 1162.6 615.002C1162.8 615.179 1163.03 615.268 1163.28 615.268H1180.65C1181.54 615.268 1182.36 615.496 1183.12 615.952C1183.88 616.383 1184.48 616.978 1184.91 617.738C1185.36 618.473 1185.59 619.296 1185.59 620.208V626.06C1185.59 626.972 1185.36 627.808 1184.91 628.568C1184.48 629.303 1183.88 629.898 1183.12 630.354C1182.36 630.785 1181.54 631 1180.65 631H1163.17ZM1209.84 631V607.744H1198.21V603.64H1225.57V607.744H1213.95V631H1209.84ZM1260.72 631L1252.17 620.778H1257.52L1265.5 630.24V631H1260.72ZM1238.3 631V603.678H1260.68C1261.59 603.678 1262.43 603.906 1263.19 604.362C1263.95 604.818 1264.54 605.426 1264.97 606.186C1265.43 606.921 1265.66 607.731 1265.66 608.618V616.294C1265.66 617.206 1265.43 618.042 1264.97 618.802C1264.54 619.537 1263.95 620.132 1263.19 620.588C1262.43 621.019 1261.59 621.234 1260.68 621.234L1242.4 621.272V631H1238.3ZM1243.35 617.092H1260.6C1260.86 617.092 1261.07 617.003 1261.25 616.826C1261.43 616.649 1261.51 616.433 1261.51 616.18V608.732C1261.51 608.479 1261.43 608.263 1261.25 608.086C1261.07 607.883 1260.86 607.782 1260.6 607.782H1243.35C1243.1 607.782 1242.87 607.883 1242.67 608.086C1242.49 608.263 1242.4 608.479 1242.4 608.732V616.18C1242.4 616.433 1242.49 616.649 1242.67 616.826C1242.87 617.003 1243.1 617.092 1243.35 617.092ZM1284.4 631C1283.49 631 1282.65 630.785 1281.89 630.354C1281.16 629.898 1280.56 629.303 1280.1 628.568C1279.67 627.808 1279.46 626.972 1279.46 626.06V608.58C1279.46 607.668 1279.67 606.845 1280.1 606.11C1280.56 605.35 1281.16 604.755 1281.89 604.324C1282.65 603.868 1283.49 603.64 1284.4 603.64H1301.88C1302.76 603.64 1303.59 603.868 1304.35 604.324C1305.11 604.755 1305.7 605.35 1306.13 606.11C1306.59 606.845 1306.82 607.668 1306.82 608.58V626.06C1306.82 626.972 1306.59 627.808 1306.13 628.568C1305.7 629.303 1305.11 629.898 1304.35 630.354C1303.59 630.785 1302.76 631 1301.88 631H1284.4ZM1284.51 626.896H1301.76C1302.02 626.896 1302.23 626.807 1302.41 626.63C1302.59 626.427 1302.68 626.199 1302.68 625.946V608.694C1302.68 608.441 1302.59 608.225 1302.41 608.048C1302.23 607.845 1302.02 607.744 1301.76 607.744H1284.51C1284.26 607.744 1284.03 607.845 1283.83 608.048C1283.65 608.225 1283.56 608.441 1283.56 608.694V625.946C1283.56 626.199 1283.65 626.427 1283.83 626.63C1284.03 626.807 1284.26 626.896 1284.51 626.896ZM1320.88 631V603.64H1325.78L1344.1 625.452V603.64H1348.24V631H1343.34L1324.99 609.15V631H1320.88ZM1367.32 631C1366.41 631 1365.57 630.785 1364.81 630.354C1364.08 629.898 1363.48 629.303 1363.03 628.568C1362.6 627.808 1362.38 626.972 1362.38 626.06V608.58C1362.38 607.668 1362.6 606.845 1363.03 606.11C1363.48 605.35 1364.08 604.755 1364.81 604.324C1365.57 603.868 1366.41 603.64 1367.32 603.64H1384.76C1385.67 603.64 1386.51 603.868 1387.27 604.324C1388.03 604.755 1388.63 605.35 1389.06 606.11C1389.51 606.845 1389.74 607.668 1389.74 608.58V610.214H1385.6V608.694C1385.6 608.441 1385.51 608.225 1385.33 608.048C1385.15 607.845 1384.94 607.744 1384.69 607.744H1367.43C1367.18 607.744 1366.95 607.845 1366.75 608.048C1366.57 608.225 1366.48 608.441 1366.48 608.694V625.946C1366.48 626.199 1366.57 626.427 1366.75 626.63C1366.95 626.807 1367.18 626.896 1367.43 626.896H1384.69C1384.94 626.896 1385.15 626.807 1385.33 626.63C1385.51 626.427 1385.6 626.199 1385.6 625.946V620.132H1379.14V615.99H1389.74V626.06C1389.74 626.972 1389.51 627.808 1389.06 628.568C1388.63 629.303 1388.03 629.898 1387.27 630.354C1386.51 630.785 1385.67 631 1384.76 631H1367.32ZM1434.96 631V607.744H1423.34V603.64H1450.7V607.744H1439.07V631H1434.96ZM1474.55 631V620.74L1461.94 603.64H1466.76L1476.6 616.066L1486.41 603.64H1491.27L1478.66 620.74V631H1474.55ZM1503.91 631V603.678H1526.3C1527.21 603.678 1528.04 603.906 1528.8 604.362C1529.56 604.818 1530.16 605.426 1530.59 606.186C1531.05 606.921 1531.27 607.731 1531.27 608.618V616.294C1531.27 617.206 1531.05 618.042 1530.59 618.802C1530.16 619.537 1529.56 620.132 1528.8 620.588C1528.04 621.019 1527.21 621.234 1526.3 621.234L1508.02 621.272V631H1503.91ZM1508.97 617.092H1526.22C1526.47 617.092 1526.69 617.003 1526.87 616.826C1527.04 616.649 1527.13 616.433 1527.13 616.18V608.732C1527.13 608.479 1527.04 608.263 1526.87 608.086C1526.69 607.883 1526.47 607.782 1526.22 607.782H1508.97C1508.71 607.782 1508.49 607.883 1508.28 608.086C1508.11 608.263 1508.02 608.479 1508.02 608.732V616.18C1508.02 616.433 1508.11 616.649 1508.28 616.826C1508.49 617.003 1508.71 617.092 1508.97 617.092ZM1543.93 631V603.64H1569.01V607.744H1548.07V615.268H1564.9V619.372H1548.07V626.896H1569.01V631H1543.93ZM1587.61 631C1586.73 631 1585.9 630.785 1585.14 630.354C1584.38 629.898 1583.78 629.303 1583.32 628.568C1582.89 627.808 1582.67 626.972 1582.67 626.06V624.464H1586.78V625.946C1586.78 626.199 1586.87 626.427 1587.04 626.63C1587.25 626.807 1587.47 626.896 1587.73 626.896H1604.98C1605.23 626.896 1605.45 626.807 1605.63 626.63C1605.8 626.427 1605.89 626.199 1605.89 625.946V620.322C1605.89 620.043 1605.8 619.815 1605.63 619.638C1605.45 619.461 1605.23 619.372 1604.98 619.372H1587.61C1586.73 619.372 1585.9 619.157 1585.14 618.726C1584.38 618.27 1583.78 617.675 1583.32 616.94C1582.89 616.18 1582.67 615.344 1582.67 614.432V608.58C1582.67 607.668 1582.89 606.845 1583.32 606.11C1583.78 605.35 1584.38 604.755 1585.14 604.324C1585.9 603.868 1586.73 603.64 1587.61 603.64H1605.09C1605.98 603.64 1606.8 603.868 1607.56 604.324C1608.32 604.755 1608.92 605.35 1609.35 606.11C1609.81 606.845 1610.03 607.668 1610.03 608.58V610.176H1605.89V608.694C1605.89 608.441 1605.8 608.225 1605.63 608.048C1605.45 607.845 1605.23 607.744 1604.98 607.744H1587.73C1587.47 607.744 1587.25 607.845 1587.04 608.048C1586.87 608.225 1586.78 608.441 1586.78 608.694V614.318C1586.78 614.597 1586.87 614.825 1587.04 615.002C1587.25 615.179 1587.47 615.268 1587.73 615.268H1605.09C1605.98 615.268 1606.8 615.496 1607.56 615.952C1608.32 616.383 1608.92 616.978 1609.35 617.738C1609.81 618.473 1610.03 619.296 1610.03 620.208V626.06C1610.03 626.972 1609.81 627.808 1609.35 628.568C1608.92 629.303 1608.32 629.898 1607.56 630.354C1606.8 630.785 1605.98 631 1605.09 631H1587.61ZM1688.78 631C1687.86 631 1687.03 630.785 1686.27 630.354C1685.53 629.898 1684.94 629.303 1684.48 628.568C1684.05 627.808 1683.84 626.972 1683.84 626.06V608.58C1683.84 607.668 1684.05 606.845 1684.48 606.11C1684.94 605.35 1685.53 604.755 1686.27 604.324C1687.03 603.868 1687.86 603.64 1688.78 603.64H1711.12V607.744H1689.35C1688.94 607.744 1688.6 607.883 1688.32 608.162C1688.07 608.415 1687.94 608.745 1687.94 609.15V625.49C1687.94 625.895 1688.07 626.237 1688.32 626.516C1688.6 626.769 1688.94 626.896 1689.35 626.896H1711.12V631H1688.78ZM1725 631V603.602H1729.1V626.896H1752.36V631H1725ZM1764.53 631V603.64H1789.61V607.744H1768.67V615.268H1785.51V619.372H1768.67V626.896H1789.61V631H1764.53ZM1803.51 631V608.58C1803.51 607.668 1803.72 606.845 1804.15 606.11C1804.61 605.35 1805.2 604.755 1805.94 604.324C1806.7 603.868 1807.53 603.64 1808.45 603.64H1825.89C1826.8 603.64 1827.64 603.868 1828.4 604.324C1829.16 604.755 1829.75 605.35 1830.18 606.11C1830.64 606.845 1830.87 607.668 1830.87 608.58V631H1826.72V621.424H1807.61V631H1803.51ZM1807.61 617.32H1826.72V608.694C1826.72 608.441 1826.63 608.225 1826.46 608.048C1826.28 607.845 1826.06 607.744 1825.81 607.744H1808.56C1808.31 607.744 1808.08 607.845 1807.88 608.048C1807.7 608.225 1807.61 608.441 1807.61 608.694V617.32ZM1845.07 631V603.64H1849.98L1868.29 625.452V603.64H1872.43V631H1867.53L1849.18 609.15V631H1845.07ZM1912.41 631C1911.5 631 1910.67 630.785 1909.91 630.354C1909.17 629.898 1908.58 629.303 1908.12 628.568C1907.69 627.808 1907.47 626.972 1907.47 626.06V608.58C1907.47 607.668 1907.69 606.845 1908.12 606.11C1908.58 605.35 1909.17 604.755 1909.91 604.324C1910.67 603.868 1911.5 603.64 1912.41 603.64H1934.76V607.744H1912.98C1912.58 607.744 1912.24 607.883 1911.96 608.162C1911.7 608.415 1911.58 608.745 1911.58 609.15V625.49C1911.58 625.895 1911.7 626.237 1911.96 626.516C1912.24 626.769 1912.58 626.896 1912.98 626.896H1934.76V631H1912.41ZM1953.46 631C1952.55 631 1951.72 630.785 1950.96 630.354C1950.22 629.898 1949.63 629.303 1949.17 628.568C1948.74 627.808 1948.52 626.972 1948.52 626.06V608.58C1948.52 607.668 1948.74 606.845 1949.17 606.11C1949.63 605.35 1950.22 604.755 1950.96 604.324C1951.72 603.868 1952.55 603.64 1953.46 603.64H1970.94C1971.83 603.64 1972.65 603.868 1973.41 604.324C1974.17 604.755 1974.77 605.35 1975.2 606.11C1975.66 606.845 1975.88 607.668 1975.88 608.58V626.06C1975.88 626.972 1975.66 627.808 1975.2 628.568C1974.77 629.303 1974.17 629.898 1973.41 630.354C1972.65 630.785 1971.83 631 1970.94 631H1953.46ZM1953.58 626.896H1970.83C1971.08 626.896 1971.3 626.807 1971.48 626.63C1971.65 626.427 1971.74 626.199 1971.74 625.946V608.694C1971.74 608.441 1971.65 608.225 1971.48 608.048C1971.3 607.845 1971.08 607.744 1970.83 607.744H1953.58C1953.32 607.744 1953.1 607.845 1952.89 608.048C1952.72 608.225 1952.63 608.441 1952.63 608.694V625.946C1952.63 626.199 1952.72 626.427 1952.89 626.63C1953.1 626.807 1953.32 626.896 1953.58 626.896ZM1990.02 631V603.64H2012.41C2013.32 603.64 2014.15 603.868 2014.91 604.324C2015.67 604.755 2016.27 605.35 2016.7 606.11C2017.16 606.845 2017.38 607.668 2017.38 608.58V626.06C2017.38 626.972 2017.16 627.808 2016.7 628.568C2016.27 629.303 2015.67 629.898 2014.91 630.354C2014.15 630.785 2013.32 631 2012.41 631H1990.02ZM1995.04 626.896H2012.33C2012.58 626.896 2012.8 626.807 2012.98 626.63C2013.15 626.427 2013.24 626.199 2013.24 625.946V608.694C2013.24 608.441 2013.15 608.225 2012.98 608.048C2012.8 607.845 2012.58 607.744 2012.33 607.744H1995.04C1994.79 607.744 1994.57 607.845 1994.39 608.048C1994.22 608.225 1994.13 608.441 1994.13 608.694V625.946C1994.13 626.199 1994.22 626.427 1994.39 626.63C1994.57 626.807 1994.79 626.896 1995.04 626.896ZM2031.6 631V603.64H2056.68V607.744H2035.74V615.268H2052.57V619.372H2035.74V626.896H2056.68V631H2031.6ZM2130.3 631V603.678H2152.69C2153.6 603.678 2154.43 603.906 2155.19 604.362C2155.95 604.818 2156.55 605.426 2156.98 606.186C2157.44 606.921 2157.66 607.731 2157.66 608.618V616.294C2157.66 617.206 2157.44 618.042 2156.98 618.802C2156.55 619.537 2155.95 620.132 2155.19 620.588C2154.43 621.019 2153.6 621.234 2152.69 621.234L2134.41 621.272V631H2130.3ZM2135.36 617.092H2152.61C2152.86 617.092 2153.08 617.003 2153.26 616.826C2153.43 616.649 2153.52 616.433 2153.52 616.18V608.732C2153.52 608.479 2153.43 608.263 2153.26 608.086C2153.08 607.883 2152.86 607.782 2152.61 607.782H2135.36C2135.1 607.782 2134.88 607.883 2134.67 608.086C2134.5 608.263 2134.41 608.479 2134.41 608.732V616.18C2134.41 616.433 2134.5 616.649 2134.67 616.826C2134.88 617.003 2135.1 617.092 2135.36 617.092ZM2175.11 631C2174.19 631 2173.36 630.785 2172.6 630.354C2171.86 629.898 2171.27 629.303 2170.81 628.568C2170.38 627.808 2170.17 626.972 2170.17 626.06V603.64H2174.27V625.946C2174.27 626.199 2174.36 626.427 2174.54 626.63C2174.74 626.807 2174.97 626.896 2175.22 626.896H2192.47C2192.73 626.896 2192.94 626.807 2193.12 626.63C2193.3 626.427 2193.38 626.199 2193.38 625.946V603.64H2197.53V626.06C2197.53 626.972 2197.3 627.808 2196.84 628.568C2196.41 629.303 2195.82 629.898 2195.06 630.354C2194.3 630.785 2193.47 631 2192.59 631H2175.11ZM2234.01 631L2225.46 620.778H2230.82L2238.8 630.24V631H2234.01ZM2211.59 631V603.678H2233.97C2234.88 603.678 2235.72 603.906 2236.48 604.362C2237.24 604.818 2237.84 605.426 2238.27 606.186C2238.72 606.921 2238.95 607.731 2238.95 608.618V616.294C2238.95 617.206 2238.72 618.042 2238.27 618.802C2237.84 619.537 2237.24 620.132 2236.48 620.588C2235.72 621.019 2234.88 621.234 2233.97 621.234L2215.69 621.272V631H2211.59ZM2216.64 617.092H2233.9C2234.15 617.092 2234.37 617.003 2234.54 616.826C2234.72 616.649 2234.81 616.433 2234.81 616.18V608.732C2234.81 608.479 2234.72 608.263 2234.54 608.086C2234.37 607.883 2234.15 607.782 2233.9 607.782H2216.64C2216.39 607.782 2216.16 607.883 2215.96 608.086C2215.78 608.263 2215.69 608.479 2215.69 608.732V616.18C2215.69 616.433 2215.78 616.649 2215.96 616.826C2216.16 617.003 2216.39 617.092 2216.64 617.092ZM2252.9 631V603.64H2277.98V607.744H2257.05V615.268H2273.88V619.372H2257.05V626.896H2277.98V631H2252.9ZM2317.64 631C2316.73 631 2315.9 630.785 2315.14 630.354C2314.4 629.898 2313.81 629.303 2313.35 628.568C2312.92 627.808 2312.7 626.972 2312.7 626.06V608.58C2312.7 607.668 2312.92 606.845 2313.35 606.11C2313.81 605.35 2314.4 604.755 2315.14 604.324C2315.9 603.868 2316.73 603.64 2317.64 603.64H2335.09C2336 603.64 2336.83 603.868 2337.59 604.324C2338.35 604.755 2338.95 605.35 2339.38 606.11C2339.84 606.845 2340.06 607.668 2340.06 608.58V610.214H2335.92V608.694C2335.92 608.441 2335.83 608.225 2335.66 608.048C2335.48 607.845 2335.26 607.744 2335.01 607.744H2317.76C2317.5 607.744 2317.28 607.845 2317.07 608.048C2316.9 608.225 2316.81 608.441 2316.81 608.694V625.946C2316.81 626.199 2316.9 626.427 2317.07 626.63C2317.28 626.807 2317.5 626.896 2317.76 626.896H2335.01C2335.26 626.896 2335.48 626.807 2335.66 626.63C2335.83 626.427 2335.92 626.199 2335.92 625.946V620.132H2329.46V615.99H2340.06V626.06C2340.06 626.972 2339.84 627.808 2339.38 628.568C2338.95 629.303 2338.35 629.898 2337.59 630.354C2336.83 630.785 2336 631 2335.09 631H2317.64ZM2354.13 631V603.64H2359.03L2369.63 616.256L2380.19 603.64H2385.13V631H2380.99V609.15L2369.63 622.678L2358.23 609.15V631H2354.13ZM2399.3 631V603.602H2403.4V626.896H2426.66V631H2399.3Z" fill="white"/>
<path d="M1644.85 635.142V599.536H1648.96V635.142H1644.85ZM2091.32 635.142V599.536H2095.42V635.142H2091.32Z" fill="#0088FF"/>
<defs>
<linearGradient id="paint0_linear_2781_2" x1="298.353" y1="128.472" x2="756.621" y2="919.909" gradientUnits="userSpaceOnUse">
<stop stop-color="#99CFFF"/>
<stop offset="1" stop-color="#006DCC"/>
</linearGradient>
<linearGradient id="paint1_linear_2781_2" x1="366.33" y1="18.7128" x2="587.297" y2="504.794" gradientUnits="userSpaceOnUse">
<stop stop-color="#99CFFF"/>
<stop offset="1" stop-color="#006DCC"/>
</linearGradient>
</defs>
</svg>
